<svg xmlns="http://www.w3.org/2000/svg" width="40" height="40" viewBox="0 0 40 40">
    <g fill="inherit" fill-rule="evenodd">
        <path  d="M32.651 19.067a1.694 1.694 0 0 0-.917.052 10.418 10.418 0 0 0-3.374-5.258 3.795 3.795 0 0 1 .603-2.842.763.763 0 0 0-.763-1.145c-1.929.249-3.034 1.145-3.654 1.963a10.331 10.331 0 0 0-2.26-.372 9.258 9.258 0 0 1-3.027 10.457 9.218 9.218 0 0 1-10.862.325.247.247 0 0 0-.017.1 10.396 10.396 0 0 0 3.457 7.274 3.326 3.326 0 0 1 1.143 2.473v1.225a.68.68 0 0 0 .68.681h4.134a.68.68 0 0 0 .68-.681v-1.056h3.286v1.05a.68.68 0 0 0 .68.681h4.148a.68.68 0 0 0 .68-.681v-.933a3.386 3.386 0 0 1 1.16-2.576 10.412 10.412 0 0 0 3.315-5.241c.295.1.612.116.917.049A1.768 1.768 0 0 0 34 22.866v-2.044a1.774 1.774 0 0 0-1.349-1.755zm-5.088.18a1.029 1.029 0 0 1-.725-1.754 1.024 1.024 0 0 1 1.75.727 1.029 1.029 0 0 1-1.025 1.033v-.005zm-13.969 2.969c4.194 0 7.594-3.406 7.594-7.607C21.188 10.408 17.79 7 13.596 7 9.402 6.999 6.002 10.404 6 14.605c.003 4.201 3.4 7.606 7.594 7.61zm-.631-11.49v-.572a.607.607 0 0 1 .908-.525.607.607 0 0 1 .303.525v.484c.386.012.77.067 1.143.163a.718.718 0 0 1-.183 1.411.693.693 0 0 1-.197-.028 3.794 3.794 0 0 0-1.094-.158c-.803 0-1.063.347-1.063.693 0 .41.434.67 1.483 1.065 1.471.52 2.065 1.202 2.065 2.318s-.78 2.044-2.202 2.29v.675a.606.606 0 1 1-1.212 0v-.572a5.705 5.705 0 0 1-1.485-.286.719.719 0 0 1-.475-.859l.015-.06a.7.7 0 0 1 .68-.512c.08 0 .16.013.237.04.43.149.882.226 1.337.229.705 0 1.188-.287 1.188-.767 0-.481-.397-.768-1.311-1.08-1.323-.446-2.226-1.064-2.226-2.266 0-1.091.766-1.947 2.089-2.207z"/>
    </g>
</svg>
