<svg xmlns="http://www.w3.org/2000/svg" width="40" height="40" viewBox="0 0 40 40">
    <g fill="inherit" fill-rule="evenodd">
        <path  d="M25.278 28.462H11.775v1.097A1.45 1.45 0 0 1 10.315 31H8.426a1.47 1.47 0 0 1-1.033-.428 1.431 1.431 0 0 1-.421-1.024v-6.891a5.986 5.986 0 0 1 1.005-3.5c.067-.091.138-.185.212-.281h-.712A1.496 1.496 0 0 1 6 17.398v-1.023c.01-.775.644-1.401 1.429-1.41h.54c.616.03 1.198.286 1.631.719.692-1.709 1.572-3.649 2.12-4.427.975-1.373 2.395-1.768 3.378-1.937 1.621-.245 3.261-.35 4.9-.313a28.615 28.615 0 0 1 4.91.319c.983.169 2.403.555 3.377 1.937.54.786 1.429 2.723 2.115 4.443a2.478 2.478 0 0 1 1.631-.719h.54c.784.01 1.418.634 1.429 1.407v1.024a1.496 1.496 0 0 1-1.483 1.458h-.712c.073.088.143.182.212.282a5.987 5.987 0 0 1 1.014 3.499v.367A7.477 7.477 0 0 0 32.44 23c-3.407 0-6.28 2.31-7.161 5.462zm-10.76-5.075a1.137 1.137 0 0 0 1.084-.984 1.128 1.128 0 0 0-.798-1.22l-2.675-.692a1.155 1.155 0 0 0-.982.198c-.279.211-.444.538-.447.885v.685c0 .623.512 1.128 1.143 1.128h2.675zm14.77-1.128l.009-.685a1.123 1.123 0 0 0-.447-.885 1.155 1.155 0 0 0-.982-.198l-2.675.691a1.128 1.128 0 0 0-.798 1.221c.07.545.528.96 1.084.984h2.666c.631 0 1.143-.505 1.143-1.128zm3.4 14.212c-3.141-.004-5.686-2.571-5.688-5.738.001-3.167 2.548-5.734 5.689-5.733 3.14 0 5.686 2.569 5.686 5.736s-2.547 5.735-5.687 5.735zm-.473-8.662c-.991.197-1.565.842-1.565 1.664 0 .906.677 1.372 1.667 1.709.685.235.982.45.982.813 0 .363-.361.579-.89.579-.34-.002-.679-.06-1.001-.173a.525.525 0 0 0-.687.356l-.01.045a.542.542 0 0 0 .355.648c.36.121.733.194 1.112.216v.431c0 .253.203.458.454.458.25 0 .453-.205.453-.458v-.51c1.066-.185 1.65-.884 1.65-1.725 0-.842-.445-1.355-1.547-1.748-.785-.298-1.11-.494-1.11-.803 0-.26.194-.522.796-.522.277 0 .553.039.82.119a.516.516 0 0 0 .147.021.542.542 0 1 0 .137-1.064 3.928 3.928 0 0 0-.856-.123v-.364a.458.458 0 0 0-.227-.396.45.45 0 0 0-.454 0 .458.458 0 0 0-.226.396v.431z"/>
    </g>
</svg>
