<svg xmlns="http://www.w3.org/2000/svg" width="40" height="40" viewBox="0 0 40 40">
    <g fill="inherit" fill-rule="evenodd">
        <path d="M18.335 32.353v-8.009c0-.845-.437-1.449-.962-1.449h-3.496c-.525 0-.962.604-.962 1.45v8.008H9.072v-11.28c.088-.086.263-.173.35-.347L20 10.314l10.578 10.412c.087.174.262.26.35.347v1.168a7.366 7.366 0 0 0-2.614-.476c-4.107-.001-7.437 3.355-7.439 7.497 0 1.102.237 2.148.66 3.09h-3.2zM33.55 17.776c1.4 1.475-.786 3.644-2.185 2.17L20 8.752c-3.934 3.904-7.518 7.375-11.365 11.192-1.399 1.475-3.584-.694-2.185-2.169l1.923-1.822v-6.42h4.546v1.822l5.945-5.9c.611-.608 1.66-.608 2.272 0l12.414 12.32zM28.313 35c-3.141-.004-5.686-2.57-5.688-5.737.001-3.168 2.548-5.734 5.689-5.734C31.454 23.53 34 26.1 34 29.265 34 32.433 31.453 35 28.313 35zm-.473-8.661c-.991.196-1.565.841-1.565 1.663 0 .907.677 1.373 1.667 1.71.685.235.982.45.982.813 0 .362-.361.578-.89.578-.34-.002-.679-.06-1.001-.173a.525.525 0 0 0-.687.356l-.01.046a.542.542 0 0 0 .355.647c.36.121.733.194 1.112.216v.431c0 .253.203.458.454.458.25 0 .453-.205.453-.458v-.509c1.066-.185 1.65-.884 1.65-1.726 0-.841-.445-1.355-1.547-1.748-.785-.297-1.11-.494-1.11-.802 0-.261.194-.523.796-.523.277 0 .553.04.82.12a.516.516 0 0 0 .147.02.542.542 0 1 0 .137-1.064 3.928 3.928 0 0 0-.856-.122v-.365a.458.458 0 0 0-.227-.396.45.45 0 0 0-.454 0 .458.458 0 0 0-.226.396v.432z"/>
    </g>
</svg>
