<svg xmlns="http://www.w3.org/2000/svg" width="40" height="40" viewBox="0 0 40 40">
    <g fill="inherit" fill-rule="evenodd">
        <g>
            <path d="M29.401 24.614v-5.03l-8.375 1.62a5.376 5.376 0 0 1-2.025 0l-8.376-1.62v5.03c0 1.301 4.203 2.358 9.388 2.358 5.186 0 9.388-1.053 9.388-2.358z"/>
            <path d="M35.328 15.905L20.831 13.1a4.391 4.391 0 0 0-.818-.08c-.274 0-.546.026-.817.08L4.698 15.905a.79.79 0 0 0 0 1.56l5.927 1.145 8.57 1.658c.269.05.544.08.818.08.275 0 .546-.026.818-.08l8.57-1.658 2.668-.516v5.963a1.42 1.42 0 0 0-.513 1.088c0 .799.675 1.448 1.505 1.448.831 0 1.506-.649 1.506-1.448 0-.436-.198-.824-.513-1.088V17.71l1.274-.245a.79.79 0 0 0 0-1.559z"/>
        </g>
    </g>
</svg>
