<svg xmlns="http://www.w3.org/2000/svg" width="40" height="40" viewBox="0 0 40 40">
    <g fill="inherit" fill-rule="evenodd">
        <g>
            <path d="M19.932 33.656c4.83-.013 8.743-3.964 8.757-8.842v-9.825c0-4.883-3.92-8.842-8.757-8.842-4.836 0-8.757 3.96-8.757 8.842v9.825c.013 4.878 3.926 8.829 8.757 8.842zm2-7.894l-.974 1.474a1.213 1.213 0 0 1-1.002.532c-.4 0-.775-.199-1.002-.532l-.973-1.474a1.239 1.239 0 0 1-.1-1.224 1.212 1.212 0 1 1 2.1-.176 1.212 1.212 0 0 1 2.1.176c.185.397.147.863-.101 1.224h-.049zm-4.146-16.25a.164.164 0 0 1 .153.02.168.168 0 0 1 .071.137 1.379 1.379 0 0 0 1.367 1.38h1.134a1.379 1.379 0 0 0 1.367-1.38.164.164 0 0 1 .224-.157c2.602 1.045 4.103 3.81 3.576 6.587-.527 2.777-2.933 4.785-5.734 4.785-2.8 0-5.207-2.008-5.734-4.785-.526-2.778.974-5.542 3.576-6.587z"/>
            <path d="M16.877 15.112a.165.165 0 0 1 .277 0 .484.484 0 0 0 .843-.204.494.494 0 0 0-.157-.488 1.188 1.188 0 0 0-1.654 0 .494.494 0 0 0 .203.85.484.484 0 0 0 .483-.158h.005zM18.122 17.667a2.551 2.551 0 0 0 3.624 0 .494.494 0 0 0-.202-.851.484.484 0 0 0-.483.158 1.58 1.58 0 0 1-2.248 0 .483.483 0 0 0-.66.026.495.495 0 0 0-.026.667h-.005zM22.715 15.112a.165.165 0 0 1 .277 0 .484.484 0 0 0 .842-.204.494.494 0 0 0-.156-.488 1.188 1.188 0 0 0-1.654 0 .494.494 0 0 0 .202.85.484.484 0 0 0 .484-.158h.005z"/>
        </g>
    </g>
</svg>
