<svg xmlns="http://www.w3.org/2000/svg" width="40" height="40" viewBox="0 0 40 40">
    <g fill="inherit" fill-rule="evenodd">
        <path  d="M35.476 33.412a.753.753 0 0 1-.016 1.055.73.73 0 0 1-1.042-.015l-1.43-1.49a1.503 1.503 0 0 0-1.093-.47c-.416 0-.804.167-1.094.47l-.777.81a2.956 2.956 0 0 1-2.152.921 2.956 2.956 0 0 1-2.151-.921l-.777-.81a1.503 1.503 0 0 0-1.094-.47c-.416 0-.805.167-1.094.47l-.778.81a2.956 2.956 0 0 1-2.15.921 2.956 2.956 0 0 1-2.152-.921l-.777-.81a1.503 1.503 0 0 0-1.094-.47c-.416 0-.805.167-1.094.47l-.778.81a2.956 2.956 0 0 1-2.15.921 2.957 2.957 0 0 1-2.152-.921l-.777-.81a1.503 1.503 0 0 0-1.095-.47c-.415 0-.804.167-1.093.47L5.27 34.445a.73.73 0 0 1-1.042.027.753.753 0 0 1-.026-1.056l1.4-1.49A2.96 2.96 0 0 1 7.76 31c.817 0 1.581.327 2.151.921l.777.81c.29.303.679.47 1.094.47.416 0 .805-.167 1.094-.47l.778-.81A2.956 2.956 0 0 1 15.805 31c.818 0 1.582.327 2.151.921l.778.81c.29.303.678.47 1.094.47.415 0 .804-.167 1.094-.47l.777-.81A2.956 2.956 0 0 1 23.85 31c.818 0 1.582.327 2.151.921l.778.81c.29.303.678.47 1.094.47.416 0 .804-.167 1.094-.47l.777-.81A2.956 2.956 0 0 1 31.895 31c.818 0 1.582.327 2.152.921l1.429 1.49zM20.22 23l.143-.001c4.836 0 9.1 2.452 11.614 6.18h-.082c-1.09 0-2.115.438-2.873 1.228l-.777.811a.504.504 0 0 1-.372.16.504.504 0 0 1-.373-.16l-.777-.81a3.956 3.956 0 0 0-2.873-1.23c-1.09 0-2.115.439-2.873 1.23l-.777.81a.504.504 0 0 1-.372.16.504.504 0 0 1-.373-.16l-.777-.81a3.956 3.956 0 0 0-2.873-1.23c-1.09 0-2.115.439-2.873 1.23l-.777.81a.503.503 0 0 1-.373.16.504.504 0 0 1-.372-.16l-.777-.81a3.966 3.966 0 0 0-1.955-1.123A13.998 13.998 0 0 1 18.682 23.1l-3.226-8.612c-.728.389-1.628 1.08-2.544 2.45a.732.732 0 0 1-.957.24c-.842-.454-1.996-1.076-3.383 1.39l-.028.042c-.006.01-.011.019-.018.028a.759.759 0 0 1-.08.094l-.022.02a.753.753 0 0 1-.08.064l-.029.019a.731.731 0 0 1-.113.057l-.01.005-.02.006a.71.71 0 0 1-.09.025l-.033.007a.734.734 0 0 1-.175.008l-.027-.004a.644.644 0 0 1-.108-.021l-.044-.014a.686.686 0 0 1-.15-.072l-.04-.026a.75.75 0 0 1-.046-.037c-.012-.01-.025-.02-.037-.032l-.04-.044-.032-.037c-.013-.017-.025-.036-.037-.055-.007-.012-.016-.023-.023-.036a.776.776 0 0 1-.047-.102 9.988 9.988 0 0 1 .226-7.6 9.796 9.796 0 0 1 5.466-5.212 9.632 9.632 0 0 1 7.504.23 9.818 9.818 0 0 1 5.145 5.535.748.748 0 0 1 .047.27v.032a.75.75 0 0 1-.017.125l-.008.031a.74.74 0 0 1-.032.094l-.015.035a.738.738 0 0 1-.054.096l-.01.016a.74.74 0 0 1-.07.085l-.011.011-.03.027a.753.753 0 0 1-.074.059c-.01.007-.021.015-.032.021a.741.741 0 0 1-.116.06l-.005.001-.016.005a.741.741 0 0 1-.258.042h-.018a.723.723 0 0 1-.123-.016l-.038-.01-.045-.012c-2.654-.913-3.11.327-3.443 1.233a.735.735 0 0 1-.873.462c-1.583-.41-2.71-.322-3.509-.125l3.386 9.043zm-.386-15.76a8.184 8.184 0 0 0-4.456-.68c1.629.799 3.64 2.341 5.078 5.303.53-.735 1.452-1.429 3.112-1.254l-.03-.053a8.378 8.378 0 0 0-.302-.472l-.042-.057a8.283 8.283 0 0 0-.305-.406l-.078-.098a8.356 8.356 0 0 0-.365-.414c-.024-.025-.05-.05-.073-.076a8.234 8.234 0 0 0-.352-.342l-.078-.073a8.385 8.385 0 0 0-.424-.354l-.098-.075a8.223 8.223 0 0 0-.415-.295c-.02-.013-.04-.028-.06-.04a8.433 8.433 0 0 0-.48-.29l-.117-.065a8.315 8.315 0 0 0-.515-.259zM13.329 7.1c-.84 1.35-2.006 4.117-.921 8.04.93-1.12 1.965-1.88 3.2-2.354 1.233-.474 2.506-.6 3.935-.387-1.757-3.665-4.44-4.953-5.954-5.399-.044.016-.088.03-.131.047-.044.016-.086.035-.129.053zM8.08 14.648c-.001.038-.005.29-.004.38l.002.123c.003.096.007.191.013.287l.005.088c.008.124.02.248.034.372l.01.085c.013.096.026.192.042.288l.02.122.022.112c1.128-1.245 2.273-1.345 3.15-1.152-.863-3.183-.368-5.688.329-7.379a8.361 8.361 0 0 0-3.036 3.854l-.041.11c-.032.084-.063.169-.092.254l-.04.119c-.03.092-.058.184-.085.277l-.025.086c-.034.12-.064.242-.092.363l-.019.087a8.118 8.118 0 0 0-.119.668l-.015.113a8.553 8.553 0 0 0-.059.743z"/>
    </g>
</svg>
