<svg xmlns="http://www.w3.org/2000/svg" width="40" height="40" viewBox="0 0 40 40">
    <g fill="inherit" fill-rule="evenodd">
        <g>
            <path fill-rule="nonzero" d="M20 31.707A10.355 10.355 0 0 1 12.421 35C6.666 35 2 30.299 2 24.5S6.666 14 12.421 14c2.986 0 5.679 1.266 7.579 3.293A10.356 10.356 0 0 1 27.579 14C33.334 14 38 18.701 38 24.5S33.334 35 27.579 35A10.355 10.355 0 0 1 20 31.707zm1.301-1.709a8.248 8.248 0 0 0 6.278 2.902c4.578 0 8.303-3.753 8.303-8.4s-3.725-8.4-8.303-8.4a8.248 8.248 0 0 0-6.278 2.902 10.51 10.51 0 0 1 1.541 5.498 10.51 10.51 0 0 1-1.541 5.498zm-8.88 2.902c4.578 0 8.303-3.753 8.303-8.4S17 16.1 12.421 16.1c-4.578 0-8.303 3.753-8.303 8.4s3.725 8.4 8.303 8.4z"/>
            <path d="M15.894 9.166l3.803 3.714c.162.16.43.16.6 0L24.1 9.166a2.99 2.99 0 0 0 .007-4.27l-.007-.007c-1.108-1.09-2.872-1.18-4.1-.222a3.117 3.117 0 0 0-4.106.222 3.004 3.004 0 0 0 0 4.277z"/>
        </g>
    </g>
</svg>
